# Blender 4.1.1
# www.blender.org
mtllib assets/asteroid.mtl
o Asteroid_Mob_01
v -2.344354 1.283897 -2.958008
v -2.591226 2.575683 -1.844844
v -1.941399 2.836865 -2.343705
v -2.798285 1.004240 3.029371
v -2.438436 1.203954 3.160913
v -3.345592 1.615495 2.467830
v 2.328822 3.440294 1.463589
v 2.888822 2.164523 1.612203
v 3.317698 2.754898 0.452303
v -0.983308 0.328208 -3.193821
v -1.734194 0.464695 -3.755279
v -1.746802 1.204141 -3.238001
v -3.070626 -2.072878 -0.385651
v -3.368757 -2.477394 -0.750184
v -3.657448 -2.767619 -0.037379
v 1.621177 3.984579 1.418872
v 1.244048 4.478981 0.546007
v 0.904379 3.657567 1.826227
v -1.643539 -2.358462 -3.484674
v -2.662488 -1.425907 -2.813389
v -2.353754 -1.118134 -3.429309
v 3.599747 0.405306 1.649861
v 3.319229 -0.729549 2.764195
v 3.565724 -0.764127 1.648204
v 4.224683 1.579737 -0.842699
v 3.204526 2.761028 -0.255838
v 2.865652 -2.565375 -0.256300
v 2.419866 -3.219699 -0.533373
v 2.450903 -2.167647 -0.453238
v -0.097863 -3.359543 -0.317567
v 0.193437 -4.170662 0.173779
v -0.231806 -3.023475 0.238324
v 4.458896 0.739091 -0.912353
v 4.426847 1.110257 -0.554498
v 4.247411 0.135567 0.727057
v 4.157170 -0.666900 0.784665
v 4.486683 0.062372 -0.032426
v 1.433696 0.661052 4.066705
v 2.119239 0.046515 3.826139
v 1.868821 0.517144 3.623039
v 2.492870 0.749231 3.636365
v 1.914834 1.123816 3.803817
v 0.162413 -1.656628 2.521808
v -0.429064 -2.378846 2.367344
v 0.679385 -1.779421 2.588195
v -3.913081 -1.918370 1.094987
v -3.921649 -2.624185 0.415381
v -3.986058 -2.561116 1.073503
v -3.412659 -3.169041 1.003911
v -3.977531 -2.907911 0.842630
v 1.172206 -1.660540 -4.268277
v 1.130136 0.429188 -4.271975
v 1.963182 -1.509253 -4.053630
v -1.779339 -1.428916 -3.867704
v -2.417129 -0.480569 -3.536276
v -1.796738 -0.320470 -4.026305
v -0.449489 -2.577665 -3.099504
v -0.762203 -2.588357 -3.500504
v -0.252361 -3.063024 -2.863976
v -3.501362 2.153892 -0.787868
v -3.634203 1.729279 -1.122772
v -3.819363 1.583580 -1.088275
v -2.228692 0.638517 3.720346
v -2.172927 -0.173255 3.760509
v -1.217729 0.630285 4.218692
v -0.880101 4.361375 0.241468
v 0.051588 4.162101 0.795644
v 0.075333 4.254600 -0.316160
v -0.071711 -4.076973 1.063905
v 0.266887 -3.802838 1.928843
v -0.559475 -3.595376 1.559585
v -0.982618 -3.042452 1.399079
v -1.368207 -2.620865 0.673882
v -0.354462 -3.210603 1.064172
v -0.802509 4.183385 1.257585
v -1.435709 3.948530 1.122599
v -1.523799 3.617543 1.634621
v -0.789629 -1.580171 -3.910603
v -2.836832 -0.538762 -2.520447
v -2.280028 -0.725399 -2.894260
v -3.422815 -2.086273 0.333248
v 4.067336 1.610762 -0.052637
v -0.156329 3.370893 -2.099915
v 0.867176 3.948248 -1.394762
v 0.294779 2.966169 -2.497847
v -4.139227 0.007910 0.201323
v -3.648719 -0.460384 0.521439
v -4.136306 -0.837171 1.145382
v -2.759650 0.578107 -2.744333
v -2.617267 -0.247948 -2.989522
v -3.581504 -0.607687 -1.376828
v -3.128245 0.755600 -2.059361
v 0.346449 -1.865430 -4.126919
v 0.148427 -2.922520 -2.986192
v -2.434926 2.586033 2.409480
v -2.340134 1.722227 2.873400
v -1.867070 2.081456 2.910012
v 0.286110 0.717292 -3.894465
v 0.833789 1.228695 -4.142769
v 0.099464 0.113366 -4.169873
v 1.079673 -2.354414 -3.817434
v 1.229162 -2.797303 -2.797631
v 4.271552 -0.786220 0.005707
v 3.763309 -0.584427 -1.263319
v -0.977842 -2.743115 -0.510424
v -0.841687 -3.120945 -1.057252
v -2.234507 3.548053 -1.072208
v -2.796854 2.830000 -1.189769
v 1.922580 3.972455 -0.350090
v 2.628422 3.507937 -0.060792
v 2.182655 3.190398 -0.114764
v 2.020966 2.532712 2.211900
v 1.338384 3.114671 2.153948
v 1.341320 2.532016 2.816389
v 2.947801 1.900225 -1.777568
v 2.249778 1.945872 -1.326711
v 3.363477 2.064296 -1.108382
v 1.603200 2.091876 3.437934
v -3.027329 -0.973909 3.133251
v -2.756074 -2.526093 2.548852
v -2.150883 -1.144604 3.344645
v -0.691245 -0.249865 3.237189
v -0.326213 -0.143178 3.761785
v -1.295212 -0.307451 3.142145
v -3.161215 -0.729761 -0.258895
v -3.115090 -1.451576 -1.106830
v -3.347157 -0.346540 -0.659868
v -4.006592 0.046427 -0.495847
v -3.743222 -0.217564 -1.055030
v -3.118577 3.169249 0.064588
v -3.209310 2.526263 -0.750628
v -2.597561 2.488105 -1.041534
v -3.005268 1.763585 -0.855587
v -0.598922 2.089665 3.718647
v -1.575899 1.645208 3.487513
v -2.095740 3.712843 0.922448
v -3.012785 3.315398 0.797746
v -2.967418 3.071043 1.603509
v -0.848378 -2.821644 2.556003
v -2.144079 -2.526619 0.236766
v -2.566714 -3.191333 1.117275
v -2.861212 -3.213987 0.601965
v -1.919023 -3.195371 1.633031
v -1.673503 -2.698820 1.342327
v -2.166689 3.773499 0.086245
v -1.512001 3.632192 0.621316
v -1.261809 4.182114 0.070917
v 3.518415 1.025078 1.365092
v 3.378245 1.650602 1.088354
v 3.079262 1.176842 1.394397
v 3.155952 0.887890 2.793703
v 0.490171 1.717543 3.997029
v 0.396348 2.340067 3.555714
v 0.253583 1.107139 4.157738
v -0.930965 1.415643 4.084429
v -2.979150 1.472091 -1.340476
v -3.357107 1.455445 -1.562309
v -4.184619 1.013201 -0.681374
v -2.409734 0.178304 -3.593030
v -0.063726 0.510864 -3.348347
v -0.674532 1.150466 -2.799069
v 0.104969 1.613531 -3.409141
v -1.057827 2.123486 -2.962175
v 2.867597 -0.000079 -3.695204
v 3.270849 0.286808 -3.246350
v 3.204745 -0.844147 -3.209840
v 2.633874 -1.759985 -2.773663
v 2.366308 -1.388125 -2.082619
v 1.800422 -1.761594 -2.098348
v 1.771444 0.643082 -4.004982
v -3.147733 -0.216001 -0.249872
v -2.767817 -3.033506 -0.427957
v -3.672019 0.931080 2.270188
v -3.609436 1.613381 1.383454
v -3.905568 0.792166 1.711426
v 0.090493 -0.834112 2.972003
v 0.406490 -0.588420 3.573940
v -1.254590 -0.841416 2.675400
v -0.711725 -1.972395 2.278290
v -1.453590 -2.059999 2.483436
v -1.844801 -1.053533 2.931185
v 1.324084 -2.193230 2.552082
v 0.429868 -2.619127 2.934438
v 1.458338 -2.543628 2.789111
v 3.323151 -1.620388 1.203513
v 3.483787 -1.683977 0.634184
v 2.980730 -1.314428 1.548309
v 3.360712 -1.721826 -0.613271
v 2.743873 -2.623609 1.350186
v 2.665620 -1.638633 -0.599087
v 3.414059 1.236546 -2.109808
v 3.201069 1.420512 -3.005446
v 1.860199 4.363306 0.534503
v -0.823059 2.959820 -2.428215
v -1.203325 3.447953 -1.643168
v -0.607198 4.023069 -0.986884
v -0.118445 -4.156982 -0.845737
v -0.859021 -3.999022 -1.414114
v -0.058754 -4.144583 -1.538282
v 1.536562 -2.587205 -1.360140
v 1.981379 -2.680601 -0.778282
v 1.987009 -3.316440 -0.978916
v 1.736943 -2.164989 -1.190894
v 1.771792 -2.571964 -2.458263
v 1.632250 -3.158673 -1.620646
v 1.558808 -2.276820 -1.996174
v 0.690108 -3.922158 -1.710281
v 0.742370 -3.934117 1.875972
v 0.885356 -3.083415 2.528156
v 1.643234 -3.424719 1.987537
v 0.989261 -4.381184 0.204680
v 0.513787 -4.180322 -0.570305
v 1.377991 -3.896332 -0.718533
v -2.013743 -2.838210 -2.255014
v -1.794895 -3.281981 -1.392218
v -1.647313 -2.765556 -1.053400
v 1.455278 4.010433 -0.754115
v 0.977041 3.385860 -1.718921
v -0.085889 2.811546 1.767591
v 0.769329 2.242733 2.487890
v 0.664832 2.949377 1.752794
v 0.019409 3.703467 1.749033
v 1.596507 -0.762227 3.204254
v 1.626579 -0.621630 3.869524
v 0.649582 -0.689837 4.132251
v -3.307442 -1.759544 -1.911865
v 0.407628 1.998010 -3.559884
v -2.458925 1.953903 -1.584178
v -2.612908 1.801915 -1.214561
v -2.156695 1.145084 3.030451
v -1.833963 1.232498 3.554400
v -1.713656 1.570774 2.974450
v 2.818685 1.676231 1.407616
v 2.833236 1.265828 1.866734
v 3.259990 -1.135136 -1.907676
v -0.716650 3.145031 -1.763926
v 1.637641 3.201582 -0.361220
v 1.470690 2.640088 -2.347382
v 3.740869 0.198661 -2.113143
v 2.699993 -1.137186 -1.351016
v -0.094873 -0.217485 4.261133
v -1.183013 -0.121091 4.059794
v -3.449394 1.444945 0.992440
v -3.961592 1.281258 0.700864
v 2.584025 0.782439 -3.831795
v 2.713533 1.300087 -3.648213
v -0.343471 2.107923 -3.116994
v 1.893590 -1.735533 2.850368
v 2.237939 -1.335071 3.449874
v -0.429824 2.381893 2.521575
v 0.790819 -0.023807 4.276407
v 2.358199 -3.699624 0.429716
v 1.791266 -4.229830 0.296723
v -3.017489 -2.410800 -1.730433
v -1.302209 -3.498717 -2.235007
v 1.270545 2.485834 -1.350602
v 1.250071 2.911340 -0.789618
v 2.810479 -1.827449 2.897767
v 2.930997 -0.895364 3.277330
v 0.752896 -1.093030 2.756810
v 2.040605 -2.098541 -3.498882
v 2.539279 1.833348 -3.243688
v 1.527311 1.704830 -3.582808
v -1.017530 -3.114733 -2.843453
v -0.634217 2.609280 2.899274
v -0.697954 3.394161 2.183683
v 2.932894 1.482520 2.393393
v -4.181015 0.451771 0.634327
v -0.834087 -0.298251 -3.939368
v -3.559894 -1.604781 -1.519883
v -3.551442 -1.000341 2.446211
v -3.512333 -2.516155 1.872180
v -3.003000 2.382424 2.132127
v -1.893151 -2.335688 2.882773
v 1.973902 -2.308312 2.961047
v 1.872753 -2.796415 2.347368
v 3.136342 -1.733248 2.059491
v 1.606649 2.266461 -1.827125
v 2.399584 2.599628 -0.237742
v -0.699293 -3.825122 -2.075421
v -1.946830 -2.488787 -0.620782
v 2.387447 2.030188 -0.778040
v 3.329222 -1.089125 2.227944
v 0.922990 -0.742354 3.344109
v -1.865097 -0.551231 3.670652
v -3.618936 2.155881 0.810014
v -2.804447 1.668703 -1.968579
v -3.570936 1.600827 0.708679
v 0.899951 4.327261 -0.805336
v 1.013554 -3.239194 1.995939
v 0.745604 -4.331942 0.995513
v 1.592552 -4.227305 1.116142
v 2.135663 -3.582060 1.587640
v -0.931510 -2.739462 -2.924429
v -0.504380 -2.887482 -2.752358
v 2.444847 2.268844 -2.330592
v 2.492461 3.826747 0.856003
v 0.041190 -2.782552 2.789177
v -3.469949 -1.485535 0.928471
v 0.258186 -0.648669 -4.319331
v 0.757729 2.135530 -3.529780
v -4.123592 1.731277 -0.487772
vn -0.6034 0.4083 -0.6850
vn -0.8917 0.2984 -0.3402
vn -0.3842 0.6257 -0.6789
vn -0.6070 0.2411 0.7572
vn -0.2475 0.6269 0.7387
vn -0.7191 0.3820 0.5805
vn 0.5823 0.5099 0.6332
vn 0.8239 0.2697 0.4984
vn 0.8271 0.5196 0.2143
vn 0.1800 0.6095 -0.7721
vn 0.0487 0.5220 -0.8516
vn 0.0108 0.4279 -0.9038
vn -0.9490 0.3061 -0.0753
vn -0.9550 -0.2534 -0.1544
vn -0.7783 -0.3779 -0.5014
vn 0.2187 0.7584 0.6140
vn 0.0156 0.9836 0.1798
vn -0.0907 0.5324 0.8416
vn -0.4494 -0.5468 -0.7065
vn -0.7836 -0.1609 -0.6000
vn -0.8676 -0.1299 -0.4800
vn 0.9068 0.1476 0.3949
vn 0.8998 -0.1224 0.4188
vn 0.8646 -0.3292 0.3797
vn 0.8113 0.5134 -0.2798
vn 0.4405 0.7298 -0.5228
vn 0.7552 -0.4182 -0.5048
vn 0.7464 -0.3625 -0.5580
vn 0.4713 -0.2465 -0.8468
vn -0.8283 -0.4703 0.3044
vn -0.6170 -0.7867 -0.0189
vn -0.7079 -0.7047 -0.0474
vn 0.9437 0.0071 -0.3306
vn 0.9571 0.2793 0.0769
vn 0.8953 0.1087 0.4320
vn 0.8765 -0.3041 0.3731
vn 0.9951 -0.0963 0.0211
vn 0.3598 0.1310 0.9238
vn 0.3861 0.0263 0.9221
vn 0.4061 0.1815 0.8956
vn 0.5144 0.2045 0.8328
vn 0.4085 0.1973 0.8912
vn -0.1341 -0.2619 0.9557
vn -0.1476 0.3070 0.9402
vn -0.1585 -0.0377 0.9866
vn -0.9817 0.1310 -0.1385
vn -0.9125 0.0864 -0.3999
vn -0.9626 -0.0672 0.2625
vn -0.3299 -0.9310 0.1560
vn -0.8111 -0.5837 0.0368
vn 0.1373 -0.3008 -0.9437
vn 0.1412 0.1230 -0.9823
vn 0.4548 -0.3028 -0.8375
vn -0.3950 -0.2783 -0.8755
vn -0.8588 -0.1767 -0.4809
vn -0.2539 0.0787 -0.9640
vn -0.5944 -0.8037 0.0250
vn -0.0475 -0.7359 -0.6755
vn -0.1183 -0.6664 -0.7362
vn -0.3744 0.5540 -0.7436
vn -0.2761 0.6966 -0.6622
vn -0.7195 0.3630 -0.5920
vn -0.5622 0.2390 0.7917
vn -0.4129 -0.1812 0.8926
vn -0.2517 0.0684 0.9654
vn -0.1682 0.9857 -0.0142
vn -0.0061 0.9647 0.2634
vn -0.1001 0.9906 -0.0931
vn -0.6380 -0.7695 0.0275
vn -0.2163 -0.7824 0.5840
vn -0.5737 -0.8185 -0.0286
vn -0.3352 -0.6721 -0.6603
vn -0.2525 -0.9561 -0.1485
vn -0.6954 -0.5932 -0.4056
vn -0.0953 0.9072 0.4097
vn -0.4610 0.8693 0.1781
vn -0.2887 0.7510 0.5939
vn -0.1673 -0.2362 -0.9572
vn -0.7875 -0.0593 -0.6135
vn -0.9039 -0.0988 -0.4161
vn -0.7576 0.4872 -0.4344
vn 0.8621 0.4031 0.3071
vn -0.1397 0.7568 -0.6386
vn 0.2881 0.7227 -0.6282
vn 0.1070 0.7388 -0.6653
vn -0.8959 -0.4055 -0.1812
vn -0.5831 -0.5884 -0.5601
vn -0.9594 -0.2487 -0.1331
vn -0.8575 0.1663 -0.4868
vn -0.8897 -0.2586 -0.3762
vn -0.9798 -0.1741 -0.0984
vn -0.8119 0.1497 -0.5643
vn -0.1349 -0.4290 -0.8932
vn 0.0844 -0.7662 -0.6371
vn -0.3181 0.5855 0.7457
vn -0.2418 0.3688 0.8975
vn -0.3854 0.4527 0.8041
vn -0.7579 0.3441 -0.5543
vn -0.0960 0.3787 -0.9205
vn -0.4089 0.3706 -0.8339
vn 0.1465 -0.7381 -0.6586
vn 0.3825 -0.8102 -0.4442
vn 0.8963 -0.4335 -0.0934
vn 0.8629 -0.3976 -0.3119
vn -0.4052 -0.8822 0.2400
vn -0.4812 -0.5635 0.6715
vn -0.4737 0.7980 -0.3725
vn -0.8565 0.1748 -0.4856
vn 0.6043 0.4462 -0.6601
vn 0.5707 0.5103 -0.6433
vn 0.2526 0.0908 -0.9633
vn 0.5495 0.5804 0.6010
vn -0.0079 0.5998 0.8001
vn 0.0450 0.8893 0.4550
vn 0.4565 0.8754 -0.1587
vn 0.2450 0.9693 -0.0217
vn 0.2941 0.8164 -0.4970
vn 0.4144 0.6437 0.6434
vn -0.5920 -0.1937 0.7823
vn -0.3429 -0.6360 0.6913
vn 0.2148 -0.4423 0.8708
vn -0.1235 -0.8578 0.4989
vn -0.2452 -0.9558 0.1624
vn 0.2944 -0.8206 0.4899
vn -0.9853 -0.1211 -0.1208
vn -0.8963 0.0195 0.4429
vn -0.7400 -0.5537 0.3819
vn -0.8008 -0.5712 -0.1801
vn -0.8797 -0.4514 -0.1494
vn -0.7282 0.6734 -0.1278
vn -0.6400 0.3529 -0.6825
vn -0.7865 -0.2638 -0.5585
vn -0.2218 0.5305 -0.8182
vn -0.2089 0.6753 0.7073
vn -0.6550 0.4896 0.5756
vn -0.2817 0.9536 0.1066
vn -0.6745 0.7282 0.1214
vn -0.6343 0.6376 0.4373
vn -0.1111 -0.3538 0.9287
vn 0.3377 -0.9344 -0.1138
vn 0.2434 -0.9555 -0.1664
vn 0.1812 -0.9721 -0.1493
vn -0.0167 -0.9980 -0.0612
vn 0.0443 -0.8226 -0.5669
vn -0.3859 0.9221 0.0294
vn -0.4791 0.8777 0.0122
vn -0.4522 0.8919 -0.0084
vn 0.7421 0.4974 0.4492
vn 0.7127 0.2851 0.6409
vn 0.5130 0.6875 0.5141
vn 0.8209 0.3263 0.4686
vn 0.1153 0.4175 0.9013
vn 0.0633 0.8683 0.4919
vn 0.0562 0.1826 0.9816
vn -0.2474 0.4009 0.8821
vn -0.2640 0.9433 -0.2014
vn -0.4407 0.6841 -0.5812
vn -0.9476 0.0020 -0.3195
vn -0.6961 0.1976 -0.6902
vn -0.6019 0.4442 -0.6636
vn -0.1266 0.1291 -0.9835
vn -0.6364 0.1001 -0.7648
vn -0.1058 0.3083 -0.9454
vn 0.5681 -0.0224 -0.8227
vn 0.8414 0.0505 -0.5381
vn 0.8158 -0.3379 -0.4694
vn 0.6858 -0.7240 0.0742
vn 0.3903 -0.8596 0.3298
vn 0.7500 -0.6076 0.2613
vn 0.2743 0.1972 -0.9412
vn -0.8168 -0.5724 -0.0726
vn -0.0188 -0.9929 -0.1171
vn -0.8495 0.1786 0.4964
vn -0.9124 0.3915 0.1197
vn -0.9345 0.1960 0.2972
vn -0.1779 -0.6795 0.7118
vn -0.3420 -0.9099 0.2349
vn 0.1914 -0.4707 0.8613
vn 0.0383 -0.0211 0.9990
vn 0.4500 0.0931 0.8882
vn 0.6699 -0.3428 0.6585
vn -0.1488 0.1494 0.9775
vn -0.1286 -0.0489 0.9905
vn 0.0364 -0.1943 0.9803
vn 0.8355 -0.3907 0.3864
vn 0.8079 -0.5763 0.1234
vn 0.9257 -0.1979 0.3225
vn 0.5263 -0.7116 -0.4654
vn 0.8177 -0.5208 0.2452
vn 0.2780 -0.6411 -0.7153
vn 0.8234 0.4606 -0.3314
vn 0.7981 0.4694 -0.3776
vn 0.4241 0.9031 0.0671
vn -0.1261 0.7512 -0.6479
vn -0.1427 0.8014 -0.5808
vn -0.1663 0.8973 -0.4089
vn -0.4577 -0.8494 0.2627
vn -0.4960 -0.8327 0.2460
vn 0.0122 -0.9542 -0.2989
vn 0.9565 -0.0106 -0.2917
vn 0.7028 0.0248 -0.7110
vn 0.7335 -0.3446 -0.5858
vn 0.7865 -0.4461 -0.4271
vn 0.7977 -0.6011 0.0477
vn 0.8659 -0.3595 -0.3478
vn 0.9626 -0.1817 0.2009
vn 0.3343 -0.8353 -0.4364
vn 0.0546 -0.7560 0.6523
vn 0.1615 -0.6735 0.7213
vn 0.2595 -0.6297 0.7322
vn 0.0215 -0.9908 -0.1337
vn 0.0786 -0.9857 -0.1491
vn 0.4153 -0.8265 -0.3800
vn -0.6177 -0.6734 -0.4062
vn -0.3965 -0.8708 0.2907
vn 0.0047 -0.7323 0.6810
vn 0.6890 0.3979 -0.6057
vn 0.7358 0.4573 -0.4994
vn 0.3112 0.4318 0.8466
vn -0.2771 0.9083 0.3134
vn -0.2805 0.3523 0.8928
vn 0.1311 0.5591 0.8187
vn -0.3403 -0.7770 0.5296
vn 0.1556 -0.6042 0.7815
vn -0.0994 -0.7879 0.6077
vn -0.8032 -0.2622 -0.5348
vn -0.3547 0.4737 -0.8061
vn -0.9526 0.2716 0.1371
vn -0.7783 0.4968 -0.3841
vn -0.0375 0.8395 0.5421
vn -0.5705 0.6184 0.5405
vn -0.7068 0.2461 0.6632
vn 0.8569 -0.0422 0.5138
vn 0.7570 0.6281 -0.1798
vn 0.5958 -0.7975 -0.0948
vn -0.2022 0.5811 -0.7883
vn 0.5839 0.0946 -0.8063
vn 0.4892 0.8462 -0.2114
vn 0.9261 -0.0383 -0.3753
vn 0.2341 -0.9346 -0.2679
vn -0.2446 -0.5801 0.7770
vn -0.0817 -0.6724 0.7357
vn -0.8276 0.5546 -0.0870
vn -0.8711 0.3904 0.2978
vn 0.3796 0.1170 -0.9177
vn 0.4632 0.4016 -0.7900
vn -0.4044 0.2015 -0.8921
vn -0.5697 -0.2025 0.7965
vn -0.0551 -0.4631 0.8846
vn 0.5482 0.8017 0.2384
vn 0.1552 -0.0600 0.9861
vn 0.7958 -0.6054 -0.0120
vn 0.4696 -0.8717 -0.1401
vn -0.6509 -0.6217 -0.4356
vn -0.4789 -0.7810 -0.4007
vn 0.7768 0.6175 -0.1235
vn 0.8050 0.2819 -0.5220
vn 0.6433 -0.5301 0.5524
vn 0.6474 -0.1886 0.7385
vn -0.1759 -0.5125 0.8405
vn 0.5575 -0.6901 -0.4615
vn 0.3738 0.7475 -0.5492
vn 0.2397 0.6131 -0.7528
vn -0.0052 -0.6732 -0.7395
vn 0.1538 0.8788 0.4517
vn 0.1597 0.6013 0.7829
vn 0.7562 0.5676 0.3257
vn -0.9918 0.0719 0.1054
vn -0.0944 0.3555 -0.9299
vn -0.9966 -0.0818 -0.0134
vn -0.8499 -0.1166 0.5139
vn -0.7084 -0.4525 0.5417
vn -0.6980 0.4851 0.5268
vn 0.1629 -0.4251 0.8904
vn -0.0379 -0.4813 0.8757
vn 0.4826 -0.6321 0.6063
vn 0.9359 -0.3299 0.1237
vn 0.4931 0.8334 0.2497
vn 0.1472 0.5040 -0.8511
vn -0.1441 -0.8483 -0.5095
vn 0.2020 -0.9159 0.3469
vn 0.1478 0.8597 -0.4890
vn 0.9206 -0.3823 0.0800
vn -0.0611 -0.9560 0.2870
vn 0.1731 -0.6395 0.7490
vn -0.9123 0.3101 0.2674
vn -0.8298 0.4855 -0.2751
vn -0.5417 0.0825 0.8365
vn 0.1304 0.9230 -0.3619
vn 0.2681 -0.6979 0.6642
vn -0.1165 -0.9725 0.2014
vn 0.3595 -0.8775 0.3174
vn 0.6352 -0.5969 0.4901
vn 0.6858 -0.5976 -0.4153
vn -0.2013 -0.2233 -0.9537
vn 0.4367 0.8993 -0.0236
vn 0.6897 0.6777 0.2552
vn -0.2559 -0.1791 0.9500
vn -0.7384 0.0290 -0.6737
vn -0.1565 -0.0036 -0.9877
vn 0.0887 0.7025 -0.7062
vn -0.9012 0.3978 -0.1718
vt 0.522833 0.427987
vt 0.447151 0.432582
vt 0.455849 0.396719
vt 0.156143 0.319328
vt 0.174975 0.317944
vt 0.145087 0.359434
vt 0.607518 0.507615
vt 0.656004 0.471152
vt 0.670869 0.529754
vt 0.933333 0.502726
vt 0.972857 0.494716
vt 0.970419 0.535865
vt 0.792533 0.497225
vt 0.814991 0.481679
vt 0.832406 0.513365
vt 0.215322 0.478107
vt 0.221425 0.523648
vt 0.175925 0.473932
vt 0.793577 0.092581
vt 0.726405 0.089886
vt 0.740190 0.059868
vt 0.161584 0.716563
vt 0.139139 0.650561
vt 0.184319 0.669398
vt 0.755187 0.552260
vt 0.681291 0.559670
vt 0.568007 0.573973
vt 0.578131 0.610166
vt 0.542964 0.581137
vt 0.856330 0.825265
vt 0.871142 0.867367
vt 0.827651 0.833505
vt 0.129113 0.158395
vt 0.116469 0.194835
vt 0.110154 0.168709
vt 0.072633 0.112466
vt 0.082723 0.079776
vt 0.104972 0.120889
vt 0.018396 0.647164
vt 0.061085 0.645809
vt 0.041582 0.662720
vt 0.402956 0.452512
vt 0.431020 0.461246
vt 0.406057 0.480569
vt 0.414654 0.783681
vt 0.389256 0.751556
vt 0.439079 0.779171
vt 0.808222 0.571705
vt 0.832065 0.536452
vt 0.836767 0.564593
vt 0.874240 0.539145
vt 0.849086 0.550372
vt 0.353331 0.106470
vt 0.350564 0.197130
vt 0.320315 0.111385
vt 0.758663 0.443740
vt 0.720232 0.408739
vt 0.752232 0.396844
vt 0.676885 0.954881
vt 0.695886 0.966486
vt 0.654580 0.966486
vt 0.569317 0.287711
vt 0.560969 0.264573
vt 0.567117 0.256038
vt 0.175842 0.282582
vt 0.157155 0.252667
vt 0.215924 0.254551
vt 0.145722 0.581214
vt 0.169311 0.538003
vt 0.194998 0.580706
vt 0.430307 0.629224
vt 0.414387 0.668912
vt 0.392657 0.634224
vt 0.779465 0.868734
vt 0.771074 0.829470
vt 0.809629 0.865517
vt 0.127522 0.540966
vt 0.102922 0.557050
vt 0.085119 0.535927
vt 0.803350 0.443341
vt 0.977074 0.327755
vt 0.942677 0.351156
vt 0.942677 0.320684
vt 0.961723 0.298507
vt 0.801508 0.531514
vt 0.078772 0.186030
vt 0.435292 0.319038
vt 0.396204 0.275282
vt 0.460800 0.299299
vt 0.959269 0.826821
vt 0.926854 0.832004
vt 0.913027 0.796194
vt 0.675086 0.367877
vt 0.692994 0.402453
vt 0.672073 0.418690
vt 0.078726 0.835257
vt 0.130535 0.788020
vt 0.160974 0.805694
vt 0.864726 0.115468
vt 0.868217 0.034973
vt 0.879264 0.102706
vt 0.195748 0.383234
vt 0.187060 0.341269
vt 0.212780 0.346840
vt 0.942926 0.048231
vt 0.907905 0.049699
vt 0.960797 0.023610
vt 0.351629 0.072730
vt 0.329701 0.028486
vt 0.381307 0.020028
vt 0.114835 0.086839
vt 0.169928 0.107442
vt 0.108377 0.936190
vt 0.077753 0.936716
vt 0.092315 0.890845
vt 0.120767 0.890999
vt 0.393737 0.411948
vt 0.417267 0.445219
vt 0.775839 0.973742
vt 0.743286 0.950284
vt 0.764133 0.938656
vt 0.453195 0.563118
vt 0.430313 0.596218
vt 0.412534 0.560952
vt 0.906072 0.296578
vt 0.870291 0.293807
vt 0.906072 0.259662
vt 0.405907 0.527176
vt 0.672073 0.320191
vt 0.744974 0.320406
vt 0.682909 0.360783
vt 0.371921 0.877535
vt 0.388070 0.899154
vt 0.346568 0.873891
vt 0.920778 0.152378
vt 0.966478 0.169455
vt 0.946121 0.205865
vt 0.955823 0.260410
vt 0.930866 0.284542
vt 0.930866 0.255442
vt 0.593345 0.342681
vt 0.564382 0.307974
vt 0.310636 0.284223
vt 0.291588 0.253963
vt 0.327544 0.261490
vt 0.268314 0.308997
vt 0.219613 0.312767
vt 0.613318 0.403277
vt 0.620541 0.360113
vt 0.656841 0.366484
vt 0.343296 0.664520
vt 0.932196 0.367160
vt 0.884381 0.388310
vt 0.886672 0.361953
vt 0.738723 0.880587
vt 0.749144 0.854514
vt 0.221244 0.774899
vt 0.191757 0.751691
vt 0.221244 0.731433
vt 0.958457 0.426050
vt 0.978392 0.449218
vt 0.950780 0.444928
vt 0.158127 0.747322
vt 0.102480 0.710546
vt 0.352008 0.520588
vt 0.359988 0.552892
vt 0.314276 0.555081
vt 0.334023 0.498159
vt 0.289518 0.527685
vt 0.266573 0.498343
vt 0.097983 0.253774
vt 0.451667 0.942762
vt 0.445988 0.960198
vt 0.421527 0.950393
vt 0.060284 0.755970
vt 0.045350 0.796804
vt 0.014798 0.792245
vt 0.816856 0.043958
vt 0.833265 0.088703
vt 0.773885 0.052777
vt 0.931706 0.937086
vt 0.944061 0.962696
vt 0.914829 0.962696
vt 0.718237 0.379320
vt 0.968975 0.062974
vt 0.975413 0.107401
vt 0.929982 0.092543
vt 0.499994 0.363234
vt 0.536526 0.401375
vt 0.272812 0.165647
vt 0.244970 0.172089
vt 0.256478 0.126250
vt 0.545023 0.225792
vt 0.525493 0.195792
vt 0.549319 0.178665
vt 0.317691 0.204050
vt 0.969961 0.208967
vt 0.981202 0.255872
vt 0.974059 0.854191
vt 0.937528 0.872271
vt 0.915028 0.872271
vt 0.852688 0.474349
vt 0.115636 0.346750
vt 0.113597 0.395026
vt 0.092791 0.359885
vt 0.407168 0.853531
vt 0.423614 0.881902
vt 0.349683 0.816066
vt 0.377315 0.768243
vt 0.347137 0.762394
vt 0.320778 0.804903
vt 0.539874 0.752439
vt 0.541868 0.706024
vt 0.560257 0.750750
vt 0.431919 0.736093
vt 0.470769 0.764018
vt 0.075864 0.020028
vt 0.103181 0.028475
vt 0.222756 0.648384
vt 0.199986 0.637391
vt 0.162159 0.044108
vt 0.675078 0.839491
vt 0.644448 0.787126
vt 0.713783 0.795026
vt 0.525702 0.562427
vt 0.775967 0.654052
vt 0.807816 0.685220
vt 0.742152 0.699471
vt 0.701492 0.703758
vt 0.741681 0.661303
vt 0.244794 0.510351
vt 0.608805 0.454892
vt 0.457249 0.348879
vt 0.416799 0.365180
vt 0.379104 0.338687
vt 0.781010 0.755273
vt 0.746273 0.733499
vt 0.780913 0.725170
vt 0.522457 0.636241
vt 0.545614 0.613229
vt 0.564821 0.635643
vt 0.514557 0.614980
vt 0.702381 0.087484
vt 0.692907 0.132110
vt 0.673898 0.078095
vt 0.234667 0.646350
vt 0.261067 0.622515
vt 0.278192 0.640551
vt 0.640287 0.143055
vt 0.432818 0.680300
vt 0.402286 0.716706
vt 0.612144 0.728454
vt 0.572809 0.713554
vt 0.833123 0.798930
vt 0.809776 0.765269
vt 0.848873 0.752620
vt 0.521218 0.082521
vt 0.522032 0.126361
vt 0.465589 0.150027
vt 0.106592 0.858750
vt 0.374112 0.244985
vt 0.423124 0.267265
vt 0.764725 0.137480
vt 0.819891 0.137326
vt 0.784706 0.163220
vt 0.841984 0.161853
vt 0.810045 0.185868
vt 0.743179 0.171781
vt 0.473870 0.855472
vt 0.481147 0.884819
vt 0.440413 0.904052
vt 0.178630 0.918905
vt 0.230500 0.895574
vt 0.230194 0.955388
vt 0.190595 0.968145
vt 0.907905 0.095473
vt 0.281066 0.297435
vt 0.282101 0.277204
vt 0.699727 0.439687
vt 0.708386 0.465668
vt 0.688779 0.448142
vt 0.715789 0.166946
vt 0.715789 0.196804
vt 0.693163 0.182058
vt 0.932305 0.917947
vt 0.917975 0.895106
vt 0.941611 0.895106
vt 0.247071 0.430047
vt 0.306032 0.317843
vt 0.215948 0.784629
vt 0.223595 0.823236
vt 0.187353 0.779882
vt 0.211886 0.090742
vt 0.104449 0.969042
vt 0.123180 0.951528
vt 0.148205 0.969042
vt 0.803892 0.977243
vt 0.788612 0.940690
vt 0.465920 0.244985
vt 0.193558 0.154853
vt 0.226210 0.220704
vt 0.186089 0.203473
vt 0.491048 0.217583
vt 0.491852 0.182211
vt 0.269806 0.698446
vt 0.229927 0.699998
vt 0.478426 0.473347
vt 0.619471 0.872064
vt 0.630012 0.894033
vt 0.580320 0.882595
vt 0.274755 0.856412
vt 0.248601 0.862148
vt 0.274755 0.836502
vt 0.970538 0.275290
vt 0.279051 0.201599
vt 0.264883 0.223500
vt 0.932745 0.124248
vt 0.724524 0.036139
vt 0.684490 0.171281
vt 0.018835 0.170179
vt 0.020405 0.137756
vt 0.916904 0.627200
vt 0.942817 0.600058
vt 0.944213 0.636863
vt 0.919891 0.417888
vt 0.947657 0.402430
vt 0.326545 0.291850
vt 0.494842 0.789718
vt 0.514948 0.819158
vt 0.478250 0.834840
vt 0.639347 0.569351
vt 0.352631 0.912112
vt 0.370638 0.958430
vt 0.317773 0.958430
vt 0.278515 0.968145
vt 0.668548 0.886128
vt 0.664161 0.914812
vt 0.902591 0.793224
vt 0.868655 0.798930
vt 0.903752 0.746142
vt 0.468474 0.086219
vt 0.557939 0.102697
vt 0.569567 0.146511
vt 0.839991 0.911228
vt 0.854295 0.954148
vt 0.813739 0.928405
vt 0.143747 0.497906
vt 0.146550 0.599137
vt 0.118300 0.632145
vt 0.022056 0.105950
vt 0.042777 0.055174
vt 0.410104 0.825475
vt 0.439931 0.811629
vt 0.309768 0.080219
vt 0.298214 0.031090
vt 0.677935 0.677731
vt 0.665503 0.704787
vt 0.635376 0.658262
vt 0.943127 0.581838
vt 0.918181 0.540952
vt 0.548330 0.028128
vt 0.573629 0.073201
vt 0.089951 0.738637
vt 0.272341 0.352175
vt 0.279540 0.398825
vt 0.372305 0.730137
vt 0.827528 0.621442
vt 0.816017 0.593808
vt 0.871482 0.634847
vt 0.613839 0.435753
vt 0.173500 0.732953
vt 0.694614 0.478710
vt 0.734896 0.522527
vt 0.927536 0.449218
vt 0.904429 0.438897
vt 0.201511 0.300941
vt 0.656841 0.226299
vt 0.593658 0.233539
vt 0.644015 0.201826
vt 0.892820 0.501300
vt 0.931739 0.460798
vt 0.507234 0.331469
vt 0.586445 0.191048
vt 0.934021 0.232769
vt 0.428402 0.070069
vt 0.448408 0.061514
vt 0.680408 0.282871
vt 0.750604 0.277915
vt 0.167786 0.389830
vt 0.177735 0.427043
vt 0.078018 0.406764
vt 0.323158 0.747908
vt 0.298072 0.800092
vt 0.513491 0.852517
vt 0.537602 0.786688
vt 0.563082 0.779009
vt 0.591971 0.755768
vt 0.575845 0.819747
vt 0.536451 0.820822
vt 0.378029 0.465440
vt 0.613227 0.829671
vt 0.230779 0.730883
vt 0.570561 0.520169
vt 0.570561 0.467679
vt 0.852519 0.325375
vt 0.826720 0.314936
vt 0.851570 0.354464
vt 0.759165 0.911228
vt 0.582615 0.119155
vt 0.607420 0.074759
vt 0.625969 0.068887
vt 0.605697 0.150027
vt 0.688011 0.741163
vt 0.727916 0.762692
vt 0.229927 0.595504
vt 0.275388 0.601642
vt 0.813291 0.713477
vt 0.083089 0.847746
vt 0.037438 0.893761
vt 0.776483 0.194053
vt 0.843306 0.244907
vt 0.872183 0.219795
vt 0.863164 0.271591
vt 0.165665 0.644562
vt 0.397101 0.941292
vt 0.445677 0.867295
vt 0.060846 0.608325
vt 0.012834 0.605763
vt 0.708126 0.901002
vt 0.311746 0.881325
vt 0.298072 0.852257
vt 0.318903 0.842900
vt 0.116340 0.430047
vt 0.480032 0.928572
vt 0.477279 0.955462
vt 0.461215 0.923924
vt 0.083436 0.961330
vt 0.059925 0.961330
vt 0.058606 0.937886
vt 0.339691 0.599188
vt 0.292354 0.647855
vt 0.893710 0.423896
vt 0.857182 0.361953
vt 0.796018 0.262312
vt 0.803638 0.334829
vt 0.037438 0.941688
vt 0.726455 0.443553
vt 0.734437 0.465668
vt 0.147773 0.748691
vt 0.116577 0.751310
vt 0.437305 0.923924
vt 0.746830 0.361953
vt 0.193109 0.835257
vt 0.612845 0.704787
vt 0.590674 0.661222
vt 0.581688 0.697980
vt 0.387992 0.092253
vt 0.186521 0.898901
vt 0.193325 0.872354
vt 0.067855 0.277942
vt 0.025155 0.325590
vt 0.689242 0.219795
vt 0.736200 0.233906
vt 0.292198 0.936831
vt 0.270748 0.924409
vt 0.273668 0.909555
vt 0.298476 0.898453
vt 0.551037 0.855682
vt 0.581352 0.840660
vt 0.571113 0.914812
vt 0.536451 0.870054
vt 0.122353 0.220950
vt 0.447897 0.841730
vt 0.181669 0.618916
vt 0.723731 0.585236
vt 0.179546 0.439799
vt 0.366153 0.272320
vt 0.538341 0.322987
vt 0.531508 0.363659
vt 0.341429 0.414107
vt 0.334546 0.370673
vt 0.922765 0.667768
vt 0.875102 0.678644
vt 0.132340 0.848413
vt 0.864712 0.702832
vt 0.880876 0.730932
vt 0.427162 0.712887
vt 0.595728 0.705957
vt 0.460738 0.650189
vt 0.482390 0.677805
vt 0.483729 0.719130
vt 0.491404 0.631680
vt 0.513805 0.660845
vt 0.464797 0.607412
vt 0.638345 0.737515
vt 0.540135 0.658841
vt 0.894508 0.597153
vt 0.888446 0.581034
vt 0.909251 0.577101
vt 0.923289 0.579848
vt 0.153135 0.936716
vt 0.899250 0.828496
vt 0.161711 0.893471
vt 0.323976 0.353523
vt 0.347067 0.310067
vt 0.290026 0.773247
vt 0.257123 0.790554
vt 0.262581 0.760501
vt 0.804808 0.290438
vt 0.894972 0.333556
vt 0.610166 0.595530
vt 0.582886 0.562891
vt 0.611661 0.538150
vt 0.237861 0.581214
vt 0.271089 0.542908
vt 0.708484 0.646623
vt 0.440443 0.178665
vt 0.542148 0.536791
vt 0.267516 0.078370
vt 0.200293 0.641933
vt 0.219551 0.625924
vt 0.649887 0.837891
vt 0.062886 0.682527
vt 0.412932 0.730137
vt 0.348510 0.842900
vt 0.764606 0.239722
vt 0.782977 0.236462
vt 0.439424 0.120974
vt 0.780446 0.562444
vt 0.880896 0.201246
vt 0.878811 0.152378
vt 0.393454 0.149233
vt 0.682836 0.608216
vt 0.619445 0.622391
vt 0.524930 0.296720
vt 0.885253 0.460798
vt 0.792092 0.387547
vt 0.845312 0.393980
vt 0.856012 0.447715
vt 0.830798 0.361953
vt 0.068604 0.814485
vt 0.594660 0.265040
vt 0.649210 0.264514
vt 0.641118 0.306646
vt 0.409099 0.928609
vt 0.098652 0.732919
vt 0.243881 0.280428
vt 0.341532 0.444064
vt 0.325940 0.596218
vt 0.305946 0.940750
vt 0.960443 0.915751
vt 0.103553 0.494054
vt 0.722253 0.137326
vt 0.942804 0.743337
vt 0.933900 0.696001
vt 0.970958 0.713215
vt 0.577687 0.389737
vt 0.838528 0.666446
vt 0.816017 0.698537
vt 0.837628 0.892828
vt 0.799825 0.892139
vt 0.915078 0.705911
vt 0.318179 0.241699
vt 0.831500 0.127173
vt 0.541150 0.932034
vt 0.562384 0.948877
vt 0.541150 0.955573
vt 0.522436 0.735017
vt 0.503322 0.742451
vt 0.503322 0.721278
vt 0.861630 0.577101
vt 0.603845 0.616655
vt 0.770137 0.461782
vt 0.405372 0.085375
vt 0.047692 0.383043
vt 0.741621 0.360783
vt 0.105037 0.599137
vt 0.885456 0.916745
vt 0.257123 0.735444
vt 0.231030 0.624171
vt 0.363767 0.700433
vt 0.797525 0.798814
vt 0.020075 0.381727
vt 0.536451 0.683457
vt 0.480575 0.021641
vt 0.480769 0.456675
vt 0.511481 0.929342
vt 0.481208 0.506866
vt 0.501179 0.548861
vt 0.399380 0.185488
vt 0.368084 0.719939
vt 0.269080 0.870446
vt 0.953866 0.147735
vt 0.916904 0.653361
vt 0.021031 0.562128
vt 0.290197 0.389876
vt 0.537894 0.502701
vt 0.522864 0.763709
vt 0.511196 0.780576
vt 0.511196 0.755433
vt 0.904327 0.938993
vt 0.520441 0.280694
vt 0.722885 0.912885
vt 0.529564 0.692497
vt 0.455185 0.719939
vt 0.274167 0.894706
vt 0.292198 0.902273
vt 0.848075 0.175376
vt 0.770137 0.604785
vt 0.892826 0.897938
vt 0.653400 0.938822
vt 0.614123 0.915982
vt 0.658383 0.915982
vt 0.727916 0.836624
vt 0.885014 0.956401
vt 0.686458 0.918870
vt 0.262280 0.568141
vt 0.970958 0.658301
s 1
usemtl Asteroid_01
f 1/1/1 2/2/2 3/3/3
f 4/4/4 5/5/5 6/6/6
f 7/7/7 8/8/8 9/9/9
f 10/10/10 11/11/11 12/12/12
f 13/13/13 14/14/14 15/15/15
f 16/16/16 17/17/17 18/18/18
f 19/19/19 20/20/20 21/21/21
f 22/22/22 23/23/23 24/24/24
f 25/25/25 26/26/26 9/9/9
f 27/27/27 28/28/28 29/29/29
f 30/30/30 31/31/31 32/32/32
f 33/33/33 25/34/25 34/35/34
f 35/36/35 36/37/36 37/38/37
f 38/39/38 39/40/39 40/41/40
f 40/42/40 41/43/41 42/44/42
f 43/45/43 44/46/44 45/47/45
f 46/48/46 47/49/47 48/50/48
f 49/51/49 50/52/50 15/15/15
f 51/53/51 52/54/52 53/55/53
f 54/56/54 55/57/55 56/58/56
f 57/59/57 58/60/58 59/61/59
f 60/62/60 61/63/61 62/64/62
f 63/65/63 64/66/64 65/67/65
f 66/68/66 67/69/67 68/70/68
f 69/71/69 70/72/70 71/73/71
f 72/74/72 73/75/73 74/76/74
f 75/77/75 76/78/76 77/79/77
f 54/56/54 56/58/56 78/80/78
f 20/81/20 79/82/79 80/83/80
f 80/83/80 21/84/21 20/81/20
f 81/85/81 47/49/47 46/48/46
f 34/35/34 25/34/25 82/86/82
f 83/87/83 84/88/84 85/89/85
f 86/90/86 87/91/87 88/92/88
f 89/93/89 90/94/90 79/95/79
f 91/96/91 92/97/92 89/98/89
f 59/99/59 93/100/93 94/101/94
f 95/102/95 96/103/96 97/104/97
f 98/105/98 99/106/99 100/107/100
f 101/108/101 102/109/102 94/110/94
f 37/38/37 103/111/103 104/112/104
f 30/113/30 32/114/32 105/115/105
f 106/116/106 30/113/30 105/115/105
f 107/117/107 2/2/2 108/118/108
f 109/119/109 110/120/110 111/121/111
f 112/122/112 113/123/113 114/124/114
f 115/125/115 116/126/116 117/127/117
f 41/43/41 118/128/118 42/44/42
f 119/129/119 120/130/120 121/131/121
f 122/132/122 123/133/123 124/134/124
f 125/135/125 126/136/126 13/137/13
f 127/138/127 128/139/128 129/140/129
f 60/62/60 130/141/130 131/142/131
f 132/143/132 133/144/133 131/145/131
f 134/146/134 97/104/97 135/147/135
f 136/148/136 137/149/137 138/150/138
f 139/151/139 71/73/71 70/72/70
f 140/152/140 141/153/141 142/154/142
f 143/155/143 144/156/144 72/74/72
f 145/157/145 146/158/146 147/159/147
f 148/160/148 149/161/149 150/162/150
f 148/163/148 151/164/151 22/22/22
f 152/165/152 153/166/153 134/167/134
f 154/168/154 152/165/152 155/169/155
f 155/169/155 65/170/65 154/168/154
f 4/4/4 119/171/119 63/65/63
f 156/172/156 157/173/157 61/174/61
f 158/175/158 128/176/128 86/177/86
f 78/178/78 58/179/58 54/180/54
f 55/181/55 21/182/21 80/183/80
f 159/184/159 55/57/55 89/93/89
f 160/185/160 161/186/161 162/187/162
f 3/3/3 163/188/163 12/189/12
f 164/190/164 165/191/165 166/192/166
f 167/193/167 168/194/168 169/195/169
f 53/55/53 170/196/170 164/190/164
f 127/138/127 126/197/126 125/198/125
f 128/199/128 171/200/171 87/91/87
f 125/201/125 87/91/87 171/200/171
f 15/15/15 172/202/172 49/51/49
f 173/203/173 119/171/119 4/4/4
f 6/6/6 173/203/173 4/4/4
f 173/203/173 174/204/174 175/205/175
f 122/132/122 176/206/176 177/207/177
f 43/45/43 178/208/178 179/209/179
f 180/210/180 178/208/178 181/211/181
f 182/212/182 183/213/183 184/214/184
f 183/215/183 182/216/182 45/47/45
f 36/37/36 185/217/185 186/218/186
f 185/219/185 24/24/24 187/220/187
f 103/111/103 186/218/186 188/221/188
f 186/222/186 189/223/189 27/224/27
f 29/29/29 190/225/190 27/27/27
f 117/226/117 25/227/25 191/228/191
f 191/228/191 192/229/192 115/230/115
f 33/33/33 37/38/37 104/112/104
f 17/17/17 16/16/16 193/231/193
f 8/8/8 7/7/7 112/232/112
f 85/89/85 194/233/194 83/87/83
f 194/233/194 3/3/3 195/234/195
f 195/234/195 107/117/107 196/235/196
f 83/87/83 195/234/195 196/235/196
f 197/236/197 198/237/198 199/238/199
f 200/239/200 201/240/201 202/241/202
f 201/240/201 200/239/200 203/242/203
f 204/243/204 205/244/205 102/245/102
f 203/246/203 206/247/206 169/248/169
f 205/244/205 207/249/207 102/245/102
f 208/250/208 209/251/209 70/72/70
f 210/252/210 184/214/184 209/253/209
f 211/254/211 212/255/212 213/256/213
f 214/257/214 215/258/215 172/259/172
f 105/115/105 216/260/216 106/116/106
f 84/88/84 217/261/217 218/262/218
f 219/263/219 220/264/220 221/265/221
f 221/265/221 114/266/114 113/267/113
f 219/263/219 221/265/221 222/268/222
f 118/128/118 114/124/114 153/166/153
f 223/269/223 224/270/224 225/271/225
f 226/272/226 91/273/91 79/274/79
f 79/274/79 20/275/20 226/272/226
f 227/276/227 99/106/99 98/105/98
f 228/277/228 229/278/229 132/143/132
f 230/279/230 96/280/96 5/281/5
f 231/282/231 232/283/232 230/284/230
f 233/285/233 234/286/234 150/287/150
f 95/102/95 97/104/97 77/288/77
f 6/6/6 96/103/96 95/102/95
f 228/277/228 132/143/132 2/289/2
f 12/290/12 11/291/11 1/292/1
f 104/112/104 188/221/188 235/293/235
f 201/240/201 28/28/28 202/241/202
f 195/294/195 236/295/236 194/296/194
f 217/297/217 109/119/109 237/298/237
f 85/89/85 218/262/218 238/299/238
f 239/300/239 192/301/192 191/302/191
f 235/303/235 240/304/240 168/194/168
f 240/305/240 190/306/190 169/248/169
f 41/43/41 151/307/151 118/128/118
f 123/308/123 241/309/241 242/310/242
f 243/311/243 244/312/244 174/313/174
f 128/139/128 127/138/127 171/314/171
f 245/315/245 170/196/170 246/316/246
f 161/186/161 247/317/247 162/187/162
f 55/318/55 54/180/54 21/21/21
f 5/319/5 231/282/231 230/284/230
f 149/320/149 148/321/148 82/86/82
f 146/322/146 145/323/145 136/324/136
f 144/325/144 140/152/140 73/326/73
f 108/327/108 132/143/132 131/145/131
f 248/328/248 249/329/249 223/330/223
f 84/88/84 83/87/83 196/235/196
f 26/26/26 110/331/110 9/9/9
f 153/332/153 220/333/220 250/334/250
f 89/335/89 79/274/79 91/273/91
f 241/309/241 225/336/225 251/337/251
f 70/72/70 69/71/69 208/250/208
f 252/338/252 253/339/253 28/340/28
f 172/259/172 254/341/254 214/257/214
f 255/342/255 198/343/198 215/258/215
f 256/344/256 218/345/218 257/346/257
f 222/347/222 17/17/17 67/69/67
f 258/348/258 23/23/23 259/349/259
f 22/350/22 24/351/24 35/36/35
f 36/37/36 35/36/35 24/351/24
f 176/352/176 43/45/43 260/353/260
f 173/203/173 6/6/6 174/204/174
f 261/354/261 204/355/204 102/109/102
f 247/317/247 227/276/227 162/187/162
f 262/356/262 246/357/246 263/358/263
f 245/315/245 164/190/164 170/196/170
f 12/12/12 163/359/163 161/360/161
f 255/342/255 19/361/19 264/362/264
f 62/363/62 92/97/92 158/175/158
f 97/104/97 265/364/265 266/365/266
f 139/366/139 44/46/44 180/210/180
f 142/367/142 49/368/49 172/369/172
f 76/370/76 136/148/136 138/150/138
f 146/158/146 76/371/76 147/159/147
f 9/9/9 149/372/149 82/373/82
f 148/160/148 234/374/234 267/375/267
f 63/65/63 231/376/231 5/5/5
f 268/377/268 158/378/158 86/379/86
f 54/180/54 58/179/58 19/19/19
f 55/57/55 159/184/159 56/58/56
f 54/180/54 19/19/19 21/21/21
f 160/380/160 269/381/269 10/10/10
f 194/233/194 247/382/247 163/188/163
f 165/191/165 246/316/246 192/301/192
f 167/193/167 169/195/169 204/383/204
f 91/384/91 126/197/126 127/138/127
f 254/341/254 270/385/270 226/386/226
f 271/387/271 272/388/272 119/129/119
f 15/15/15 50/52/50 47/49/47
f 273/389/273 174/204/174 6/6/6
f 273/389/273 95/102/95 138/390/138
f 174/204/174 244/391/244 175/205/175
f 274/392/274 181/211/181 121/393/121
f 249/394/249 224/270/224 223/269/223
f 248/395/248 182/212/182 275/396/275
f 275/396/275 276/397/276 258/398/258
f 249/399/249 275/396/275 258/398/258
f 152/165/152 154/168/154 38/400/38
f 36/37/36 186/218/186 103/111/103
f 189/223/189 277/401/277 258/398/258
f 169/195/169 168/194/168 240/304/240
f 190/306/190 240/305/240 188/402/188
f 165/191/165 192/301/192 239/300/239
f 7/7/7 16/403/16 113/404/113
f 113/404/113 112/232/112 7/7/7
f 218/262/218 85/89/85 84/88/84
f 116/126/116 278/405/278 256/406/256
f 278/405/278 238/407/238 256/406/256
f 279/408/279 257/346/257 237/298/237
f 217/297/217 237/298/237 257/346/257
f 280/409/280 59/410/59 94/411/94
f 280/409/280 199/412/199 198/343/198
f 252/413/252 28/414/28 27/224/27
f 205/415/205 204/416/204 206/247/206
f 199/238/199 212/255/212 197/236/197
f 207/417/207 213/256/213 212/255/212
f 216/260/216 105/115/105 281/418/281
f 73/419/73 281/418/281 105/115/105
f 221/265/221 113/267/113 18/420/18
f 9/9/9 82/373/82 25/25/25
f 279/421/279 26/422/26 282/423/282
f 117/127/117 282/423/282 26/422/26
f 23/23/23 283/424/283 24/24/24
f 153/332/153 114/425/114 220/333/220
f 177/207/177 176/206/176 284/426/284
f 224/427/224 39/40/39 251/428/251
f 251/337/251 225/336/225 224/429/224
f 285/430/285 121/431/121 181/432/181
f 174/204/174 273/389/273 286/433/286
f 160/185/160 162/187/162 98/105/98
f 228/434/228 287/435/287 156/172/156
f 228/434/228 156/172/156 229/436/229
f 96/103/96 6/6/6 5/5/5
f 97/437/97 232/438/232 135/439/135
f 143/440/143 139/151/139 274/441/274
f 141/153/141 143/442/143 49/443/49
f 120/130/120 49/444/49 143/445/143
f 77/288/77 138/390/138 95/102/95
f 232/438/232 231/446/231 135/439/135
f 230/279/230 232/447/232 96/280/96
f 97/448/97 96/280/96 232/447/232
f 132/143/132 229/278/229 133/144/133
f 287/449/287 92/97/92 157/450/157
f 157/173/157 156/172/156 287/435/287
f 157/450/157 92/97/92 62/363/62
f 156/172/156 133/451/133 229/436/229
f 1/292/1 89/98/89 92/97/92
f 11/452/11 56/58/56 159/184/159
f 159/453/159 1/292/1 11/291/11
f 263/358/263 170/454/170 99/455/99
f 52/456/52 99/455/99 170/454/170
f 98/105/98 162/187/162 227/276/227
f 102/109/102 101/108/101 261/354/261
f 101/108/101 51/53/51 53/55/53
f 101/108/101 93/457/93 51/53/51
f 91/273/91 270/458/270 126/459/126
f 91/273/91 226/272/226 270/458/270
f 271/460/271 175/205/175 88/461/88
f 88/462/88 46/463/46 271/387/271
f 273/389/273 138/390/138 286/433/286
f 286/464/286 288/465/288 243/466/243
f 121/431/121 285/430/285 64/467/64
f 242/310/242 285/468/285 124/469/124
f 242/310/242 65/470/65 64/471/64
f 285/468/285 242/310/242 64/471/64
f 121/472/121 64/66/64 119/171/119
f 225/271/225 284/426/284 223/269/223
f 223/330/223 284/473/284 260/353/260
f 260/353/260 284/473/284 176/352/176
f 153/166/153 152/165/152 118/128/118
f 277/474/277 283/424/283 23/23/23
f 187/220/187 24/24/24 283/424/283
f 103/111/103 188/221/188 104/112/104
f 25/25/25 117/475/117 26/26/26
f 18/420/18 222/268/222 221/265/221
f 16/16/16 18/18/18 113/476/113
f 84/88/84 196/235/196 289/477/289
f 217/297/217 257/346/257 218/345/218
f 108/478/108 130/141/130 107/479/107
f 145/480/145 147/481/147 107/117/107
f 215/482/215 281/483/281 172/369/172
f 215/484/215 216/260/216 281/418/281
f 213/256/213 253/339/253 211/254/211
f 205/485/205 202/486/202 213/256/213
f 213/256/213 207/417/207 205/485/205
f 209/251/209 208/250/208 290/487/290
f 210/252/210 209/253/209 290/488/290
f 183/213/183 209/253/209 184/214/184
f 208/250/208 291/489/291 292/490/292
f 292/490/292 293/491/293 208/250/208
f 292/490/292 211/492/211 253/493/253
f 69/71/69 31/494/31 211/492/211
f 211/492/211 291/489/291 69/71/69
f 258/398/258 276/397/276 189/223/189
f 293/495/293 276/397/276 210/252/210
f 206/247/206 204/416/204 169/248/169
f 202/241/202 205/496/205 200/239/200
f 255/342/255 215/258/215 214/257/214
f 214/257/214 19/361/19 255/342/255
f 199/412/199 280/409/280 207/249/207
f 94/411/94 207/249/207 280/409/280
f 264/362/264 280/409/280 255/342/255
f 280/409/280 264/362/264 59/410/59
f 264/497/264 294/498/294 295/499/295
f 295/499/295 59/500/59 264/497/264
f 30/113/30 106/116/106 197/501/197
f 197/502/197 31/31/31 30/30/30
f 106/116/106 215/484/215 198/503/198
f 106/116/106 198/503/198 197/501/197
f 66/504/66 68/505/68 196/235/196
f 83/506/83 194/507/194 236/508/236
f 3/3/3 107/117/107 195/234/195
f 257/509/257 279/421/279 282/423/282
f 279/408/279 237/298/237 111/121/111
f 111/121/111 110/120/110 279/408/279
f 296/510/296 238/407/238 278/405/278
f 278/405/278 116/126/116 296/510/296
f 116/126/116 256/406/256 282/423/282
f 110/331/110 109/511/109 193/512/193
f 193/512/193 297/513/297 110/331/110
f 289/514/289 193/231/193 109/515/109
f 297/513/297 9/9/9 110/331/110
f 9/9/9 297/513/297 7/7/7
f 17/17/17 68/70/68 67/69/67
f 104/112/104 239/300/239 33/33/33
f 166/192/166 165/191/165 239/300/239
f 239/300/239 104/112/104 166/192/166
f 296/516/296 115/230/115 192/229/192
f 115/230/115 117/226/117 191/228/191
f 240/304/240 235/303/235 188/517/188
f 190/225/190 29/29/29 203/242/203
f 188/518/188 27/27/27 190/225/190
f 235/303/235 168/194/168 167/193/167
f 190/306/190 203/246/203 169/248/169
f 167/519/167 166/192/166 235/293/235
f 187/520/187 277/474/277 185/521/185
f 189/223/189 185/522/185 277/401/277
f 118/128/118 152/165/152 42/44/42
f 39/40/39 38/39/38 251/428/251
f 241/309/241 251/337/251 65/470/65
f 259/349/259 41/523/41 39/40/39
f 39/40/39 41/523/41 40/41/40
f 118/128/118 151/307/151 112/122/112
f 223/330/223 45/47/45 182/216/182
f 45/47/45 298/524/298 183/215/183
f 275/396/275 184/214/184 276/397/276
f 180/210/180 181/211/181 274/392/274
f 139/366/139 180/210/180 274/392/274
f 179/209/179 180/210/180 44/46/44
f 123/133/123 122/132/122 177/207/177
f 122/132/122 178/525/178 176/206/176
f 124/134/124 178/525/178 122/132/122
f 6/6/6 95/102/95 273/389/273
f 48/526/48 50/527/50 272/388/272
f 46/463/46 48/526/48 272/388/272
f 49/444/49 272/388/272 50/527/50
f 120/130/120 272/388/272 49/444/49
f 272/388/272 271/387/271 46/463/46
f 270/385/270 254/341/254 14/528/14
f 47/49/47 81/85/81 13/13/13
f 13/13/13 15/15/15 47/49/47
f 299/529/299 13/13/13 81/85/81
f 172/202/172 15/15/15 14/14/14
f 14/528/14 254/341/254 172/259/172
f 128/199/128 87/91/87 86/90/86
f 125/135/125 13/137/13 299/530/299
f 87/531/87 125/135/125 299/530/299
f 51/53/51 300/532/300 52/54/52
f 170/196/170 53/55/53 52/54/52
f 166/192/166 167/519/167 261/354/261
f 261/354/261 53/55/53 166/192/166
f 238/533/238 263/358/263 301/534/301
f 99/455/99 301/534/301 263/358/263
f 296/516/296 192/229/192 262/356/262
f 246/316/246 165/191/165 164/190/164
f 246/357/246 262/356/262 192/229/192
f 247/382/247 194/233/194 227/535/227
f 100/107/100 160/185/160 98/105/98
f 160/380/160 100/536/100 269/381/269
f 10/10/10 12/12/12 161/360/161
f 90/94/90 89/93/89 55/57/55
f 78/80/78 269/537/269 300/538/300
f 300/538/300 93/539/93 78/80/78
f 269/537/269 100/540/100 300/538/300
f 58/179/58 78/178/78 93/100/93
f 92/97/92 91/96/91 129/541/129
f 302/542/302 158/378/158 268/377/268
f 268/377/268 244/543/244 302/542/302
f 158/175/158 129/541/129 128/176/128
f 130/141/130 302/542/302 286/544/286
f 244/543/244 286/544/286 302/542/302
f 61/174/61 60/545/60 133/451/133
f 62/363/62 61/546/61 157/450/157
f 302/542/302 130/141/130 60/62/60
f 231/376/231 63/65/63 155/547/155
f 65/67/65 155/547/155 63/65/63
f 63/65/63 119/171/119 64/66/64
f 65/170/65 251/548/251 154/168/154
f 265/549/265 134/167/134 153/166/153
f 250/334/250 265/550/265 153/332/153
f 134/167/134 155/169/155 152/165/152
f 148/160/148 150/162/150 234/374/234
f 23/23/23 22/22/22 151/164/151
f 82/86/82 35/36/35 34/35/34
f 37/38/37 34/35/34 35/36/35
f 35/36/35 148/321/148 22/350/22
f 233/285/233 150/287/150 149/551/149
f 77/79/77 266/552/266 75/77/75
f 266/553/266 219/263/219 222/268/222
f 266/554/266 250/555/250 219/556/219
f 145/557/145 137/149/137 136/148/136
f 145/557/145 130/141/130 137/149/137
f 140/558/140 281/483/281 73/559/73
f 142/367/142 172/369/172 140/558/140
f 69/560/69 71/561/71 74/76/74
f 31/31/31 69/560/69 74/76/74
f 73/419/73 105/115/105 32/114/32
f 143/155/143 72/74/72 71/561/71
f 139/151/139 143/440/143 71/73/71
f 142/154/142 141/153/141 49/443/49
f 141/153/141 140/152/140 144/325/144
f 144/325/144 143/442/143 141/153/141
f 265/562/265 250/555/250 266/554/266
f 266/365/266 77/288/77 97/104/97
f 149/372/149 9/9/9 8/8/8
f 134/146/134 265/364/265 97/104/97
f 5/5/5 4/4/4 63/65/63
f 131/145/131 133/144/133 60/563/60
f 108/478/108 131/142/131 130/141/130
f 62/64/62 158/378/158 302/542/302
f 19/19/19 58/179/58 264/564/264
f 294/565/294 58/566/58 57/567/57
f 57/568/57 295/569/295 294/570/294
f 264/497/264 58/571/58 294/498/294
f 10/10/10 269/381/269 11/11/11
f 246/316/246 164/190/164 245/315/245
f 238/533/238 262/356/262 263/358/263
f 301/534/301 99/455/99 227/572/227
f 204/355/204 261/354/261 167/519/167
f 166/192/166 53/55/53 164/190/164
f 93/457/93 300/532/300 51/53/51
f 127/138/127 125/198/125 171/314/171
f 126/573/126 14/14/14 13/13/13
f 126/574/126 270/385/270 14/528/14
f 50/52/50 48/50/48 47/49/47
f 299/529/299 81/85/81 46/48/46
f 244/391/244 268/575/268 175/205/175
f 242/310/242 124/469/124 123/308/123
f 178/208/178 180/210/180 179/209/179
f 43/45/43 176/352/176 178/208/178
f 121/131/121 120/130/120 274/576/274
f 259/349/259 39/40/39 224/427/224
f 249/577/249 259/349/259 224/427/224
f 223/330/223 182/216/182 248/328/248
f 275/396/275 249/399/249 248/395/248
f 260/353/260 43/45/43 45/47/45
f 114/124/114 118/128/118 112/122/112
f 40/42/40 42/44/42 38/400/38
f 185/522/185 189/223/189 186/222/186
f 23/23/23 258/348/258 277/474/277
f 117/127/117 116/126/116 282/423/282
f 239/300/239 191/302/191 25/34/25
f 25/34/25 33/33/33 239/300/239
f 16/403/16 7/7/7 297/513/297
f 297/513/297 193/512/193 16/403/16
f 218/345/218 256/344/256 238/578/238
f 111/121/111 237/298/237 109/119/109
f 2/2/2 107/117/107 3/3/3
f 195/579/195 83/506/83 236/508/236
f 147/481/147 66/504/66 107/117/107
f 198/343/198 255/342/255 280/409/280
f 202/486/202 28/340/28 253/339/253
f 206/247/206 200/580/200 205/415/205
f 206/247/206 203/246/203 200/580/200
f 184/214/184 210/252/210 276/397/276
f 291/489/291 208/250/208 69/71/69
f 70/72/70 298/581/298 139/151/139
f 212/255/212 31/582/31 197/236/197
f 212/255/212 211/254/211 31/582/31
f 17/17/17 289/514/289 68/70/68
f 289/477/289 196/235/196 68/505/68
f 151/164/151 259/349/259 23/23/23
f 177/207/177 225/271/225 123/133/123
f 225/271/225 177/207/177 284/426/284
f 88/461/88 268/575/268 86/583/86
f 94/110/94 93/457/93 101/108/101
f 99/455/99 52/456/52 100/584/100
f 19/361/19 214/257/214 20/585/20
f 287/586/287 2/2/2 1/1/1
f 2/587/2 287/435/287 228/434/228
f 112/122/112 151/307/151 267/588/267
f 112/122/112 267/588/267 8/589/8
f 274/576/274 120/130/120 143/445/143
f 159/453/159 89/98/89 1/292/1
f 52/54/52 300/532/300 100/590/100
f 286/544/286 137/149/137 130/141/130
f 123/308/123 225/336/225 241/309/241
f 140/558/140 172/369/172 281/483/281
f 183/591/183 298/581/298 209/251/209
f 298/581/298 70/72/70 209/251/209
f 107/117/107 66/504/66 196/235/196
f 17/17/17 222/347/222 18/18/18
f 244/312/244 243/311/243 288/592/288
f 271/460/271 173/203/173 175/205/175
f 129/140/129 91/384/91 127/138/127
f 161/186/161 163/593/163 247/317/247
f 74/76/74 71/561/71 72/74/72
f 73/75/73 72/74/72 144/156/144
f 32/32/32 74/76/74 73/75/73
f 74/76/74 32/32/32 31/31/31
f 136/324/136 76/594/76 146/322/146
f 138/595/138 77/79/77 76/78/76
f 75/77/75 222/347/222 67/69/67
f 67/69/67 66/68/66 75/77/75
f 66/504/66 147/481/147 76/596/76
f 76/78/76 75/77/75 66/68/66
f 266/552/266 222/347/222 75/77/75
f 82/86/82 148/321/148 35/36/35
f 41/523/41 259/349/259 151/164/151
f 151/307/151 148/597/148 267/588/267
f 134/146/134 135/147/135 155/547/155
f 135/147/135 231/376/231 155/547/155
f 62/64/62 302/542/302 60/62/60
f 133/451/133 156/172/156 61/174/61
f 129/541/129 158/175/158 92/97/92
f 295/598/295 57/599/57 59/600/59
f 59/99/59 58/179/58 93/100/93
f 269/537/269 78/80/78 56/58/56
f 56/58/56 11/452/11 269/537/269
f 80/183/80 90/601/90 55/181/55
f 194/233/194 163/188/163 3/3/3
f 170/454/170 263/358/263 246/357/246
f 227/535/227 85/89/85 301/602/301
f 227/535/227 194/233/194 85/89/85
f 301/602/301 85/89/85 238/299/238
f 214/257/214 254/341/254 20/585/20
f 173/203/173 271/460/271 119/171/119
f 119/129/119 272/388/272 120/130/120
f 44/46/44 43/45/43 179/209/179
f 182/212/182 184/214/184 275/396/275
f 45/47/45 44/46/44 298/524/298
f 45/47/45 223/330/223 260/353/260
f 152/165/152 38/400/38 42/44/42
f 185/217/185 36/37/36 24/351/24
f 103/111/103 37/38/37 36/37/36
f 283/424/283 277/474/277 187/520/187
f 115/125/115 296/510/296 116/126/116
f 34/35/34 37/38/37 33/33/33
f 17/17/17 193/231/193 289/514/289
f 26/603/26 279/408/279 110/120/110
f 28/28/28 201/240/201 29/29/29
f 203/242/203 29/29/29 201/240/201
f 27/224/27 189/223/189 252/413/252
f 207/249/207 94/411/94 102/245/102
f 276/397/276 293/495/293 189/223/189
f 252/604/252 293/491/293 292/490/292
f 292/490/292 253/493/253 252/604/252
f 293/495/293 252/413/252 189/223/189
f 211/492/211 292/490/292 291/489/291
f 293/491/293 210/605/210 208/250/208
f 290/487/290 208/250/208 210/605/210
f 207/417/207 212/255/212 199/238/199
f 215/484/215 106/116/106 216/260/216
f 130/141/130 145/557/145 107/479/107
f 217/261/217 84/88/84 289/477/289
f 114/266/114 221/265/221 220/264/220
f 285/430/285 181/432/181 124/134/124
f 178/525/178 124/134/124 181/432/181
f 286/606/286 244/312/244 288/592/288
f 243/466/243 174/607/174 286/464/286
f 87/531/87 299/530/299 88/608/88
f 46/48/46 88/609/88 299/529/299
f 88/461/88 175/205/175 268/575/268
f 261/354/261 101/108/101 53/55/53
f 1/292/1 92/97/92 287/449/287
f 132/143/132 108/327/108 2/289/2
f 234/286/234 233/285/233 267/610/267
f 8/611/8 267/612/267 233/613/233
f 137/149/137 286/544/286 138/150/138
f 202/486/202 253/339/253 213/256/213
f 282/423/282 256/406/256 257/509/257
f 188/614/188 186/222/186 27/224/27
f 104/112/104 235/293/235 166/192/166
f 251/548/251 38/400/38 154/168/154
f 258/348/258 259/349/259 249/577/249
f 65/470/65 242/310/242 241/309/241
f 254/341/254 226/386/226 20/585/20
f 296/516/296 262/356/262 238/533/238
f 3/3/3 12/189/12 1/1/1
f 161/360/161 160/380/160 10/10/10
f 90/601/90 80/183/80 79/615/79
f 8/611/8 233/613/233 149/616/149
f 44/46/44 139/366/139 298/524/298
f 289/514/289 109/515/109 217/617/217
f 250/555/250 220/618/220 219/556/219
